<svg width="28" height="24" viewBox="0 0 28 24" fill="none" xmlns="http://www.w3.org/2000/svg">
<path d="M24.7951 3.08078L24.7943 3.08002C24.1035 2.43218 23.2869 1.91528 22.3878 1.55933L22.3865 1.55883C21.4537 1.18808 20.4517 0.99779 19.4391 1.00002L19.4369 1.00002C18.0132 1.00002 16.6287 1.3731 15.4294 2.07309L15.4294 2.0731C15.1426 2.2405 14.8712 2.42374 14.6147 2.62276L14.0016 3.09857L13.3885 2.62276C13.1321 2.42374 12.8606 2.2405 12.5738 2.0731L12.5738 2.07309C11.3745 1.3731 9.98996 1.00002 8.56626 1.00002C7.53964 1.00002 6.55023 1.18782 5.6167 1.55884L5.61564 1.55925C4.71308 1.91678 3.90325 2.42937 3.20861 3.08032L3.20723 3.08162L3.20723 3.08161C2.51834 3.72472 1.97053 4.48853 1.59263 5.32852L24.7951 3.08078ZM24.7951 3.08078C25.4837 3.72517 26.0318 4.48949 26.4111 5.32974C26.8039 6.20338 27.0028 7.12597 27 8.07536V8.07832C27 8.96766 26.8102 9.91793 26.4134 10.9106L26.4125 10.9129M24.7951 3.08078L26.4125 10.9129M7.22204 18.0555L7.22215 18.0556C8.69091 19.3533 10.1567 20.4539 11.2727 21.24C11.83 21.6325 12.2981 21.9453 12.6331 22.1635C12.8006 22.2726 12.9346 22.3579 13.0295 22.4176C13.0769 22.4475 13.1144 22.4707 13.1411 22.4872C13.1639 22.5013 13.1759 22.5085 13.1793 22.5106C13.1802 22.5111 13.1805 22.5113 13.1801 22.5111L13.188 22.5157L13.1958 22.5205L13.962 22.9907C13.9621 22.9907 13.9621 22.9908 13.9622 22.9908C13.9696 22.9953 13.9825 23 14 23C14.0174 23 14.0304 22.9953 14.0378 22.9908C14.0378 22.9908 14.0379 22.9907 14.038 22.9907L14.8042 22.5205L14.8044 22.5204C14.9114 22.4547 17.8305 20.6569 20.7782 18.0552C22.5515 16.4887 23.9547 14.965 24.9609 13.5298L7.22204 18.0555ZM7.22204 18.0555C5.44873 16.489 4.04555 14.9653 3.03933 13.5302L7.22204 18.0555ZM26.4125 10.9129C26.0839 11.7412 25.5967 12.6216 24.961 13.5297L26.4125 10.9129ZM1 8.07832C1 7.1265 1.19953 6.20255 1.5926 5.32859L1.58649 10.9105C1.18974 9.91788 1 8.96764 1 8.07832ZM3.03926 13.5301C2.40474 12.6238 1.91957 11.7423 1.58652 10.9106L3.03926 13.5301Z" stroke="#787887" stroke-width="2"/>
</svg>
