<svg width="12" height="12" viewBox="0 0 12 12" fill="none" xmlns="http://www.w3.org/2000/svg">
<path d="M12 0.444507V8.21759C12.0008 8.66419 11.8404 9.09822 11.5442 9.45068C11.248 9.80314 10.833 10.0538 10.3653 10.1628C9.89755 10.2717 9.40389 10.2328 8.96281 10.0521C8.52172 9.87145 8.15854 9.55941 7.931 9.16564C7.70346 8.77186 7.62463 8.31895 7.70705 7.87892C7.78946 7.43889 8.02839 7.03701 8.38584 6.73717C8.7433 6.43734 9.19875 6.25676 9.67978 6.22416C10.1608 6.19156 10.6398 6.30881 11.0406 6.55726V3.23405L4.32476 4.78866V9.9943C4.32559 10.4409 4.16515 10.8749 3.86895 11.2274C3.57275 11.5798 3.15778 11.8305 2.69005 11.9395C2.22231 12.0485 1.72865 12.0095 1.28757 11.8288C0.846484 11.6482 0.483297 11.3361 0.255758 10.9423C0.0282183 10.5486 -0.0506103 10.0957 0.0318064 9.65563C0.114223 9.2156 0.353153 8.81371 0.710605 8.51388C1.06806 8.21404 1.52351 8.03347 2.00454 8.00087C2.48557 7.96827 2.96456 8.08552 3.36535 8.33397V2.22121C3.36537 2.12215 3.40117 2.02594 3.46705 1.94789C3.53293 1.86984 3.6251 1.81443 3.72891 1.79047L11.4041 0.0137675C11.4748 -0.00302151 11.5486 -0.00447595 11.62 0.0095176C11.6913 0.0235112 11.7582 0.0525744 11.8154 0.0944409C11.8728 0.136013 11.9193 0.189132 11.9513 0.249781C11.9833 0.310429 11.9999 0.377018 12 0.444507Z" fill="white"/>
</svg>
